# xmcd
#
# Track frame offsets: 
#        150
#        21034
#        42564
#        62648
#        94907
#        112776
#        130305
#        153109
#        172593
#
# Disc length: 2560 seconds
#
# Revision: 0
# Processed by: cddbd v1.5.2PL0 Copyright (c) Steve Scherf et al.
# Submitted via: ExactAudioCopy v1.0b1
#
DISCID=6409fe09
DTITLE=Willie Hutch - Fully Exposed
DYEAR=1973
DGENRE=Soul
TTITLE0=I Wanna Be Where You Are
TTITLE1=Can't Get Ready For Losing You
TTITLE2=I Just Wanted To Make Her Happy
TTITLE3=California My Way
TTITLE4=Tell Me, Why Has Our Love Turned Cold
TTITLE5=Sunshine Lady
TTITLE6=I'll Be There
TTITLE7=If You Ain't Got No Money (You Can't Get No Honey)
TTITLE8=Ain't Nothing Like Togetherness
EXTD=Sean P.
EXTT0=
EXTT1=
EXTT2=
EXTT3=
EXTT4=
EXTT5=
EXTT6=
EXTT7=
EXTT8=
PLAYORDER=
